Coordinates
version=1
nRows=26
nColumns=24
inDegrees=yes

Units are S.I. units (second, meters, Newtons, ...)
Angles are in degrees.

endheader
time	pelvis_tilt	pelvis_list	pelvis_rotation	pelvis_tx	pelvis_ty	pelvis_tz	hip_flexion_r	hip_adduction_r	hip_rotation_r	knee_angle_r	ankle_angle_r	subtalar_angle_r	mtp_angle_r	hip_flexion_l	hip_adduction_l	hip_rotation_l	knee_angle_l	ankle_angle_l	subtalar_angle_l	mtp_angle_l	lumbar_extension	lumbar_bending	lumbar_rotation
      0.88366667	     -0.34629084	     -2.41799612	      3.60606580	     -0.32229499	      0.98436394	      0.34642998	     13.60144712	      7.80518210	     -0.64902132	    -23.50782910	     10.74817909	    -14.82409760	     -3.00853652	     17.19811293	     -2.41662901	      1.32614118	    -71.73229667	     -1.62318467	    -10.68959662	     -0.67474824	      1.76794062	      5.88747058	      1.99336230
      0.88783333	     -0.23652029	     -2.34943440	      3.48696843	     -0.31727096	      0.98539079	      0.34672632	     12.91225791	      7.75851426	     -0.64574268	    -23.05033759	     10.81454010	    -14.52831816	     -3.06960075	     17.73036429	     -2.32779793	      1.27466140	    -71.56997499	     -1.05335003	    -10.86685550	     -0.74689823	      1.59218986	      5.83654362	      2.16820092
      0.89200000	     -0.19762760	     -2.29535640	      3.35133443	     -0.31229445	      0.98624446	      0.34705370	     12.32147112	      7.72350228	     -0.63897647	    -22.62833209	     10.87664596	    -14.28576746	     -3.10130259	     18.34132931	     -2.26003132	      1.20672553	    -71.38622816	     -0.48373582	    -11.06697612	     -0.79251894	      1.49958409	      5.78372347	      2.30185840
      0.89616667	     -0.08541924	     -2.21631904	      3.22633131	     -0.30726311	      0.98723613	      0.34732878	     11.62356595	      7.65339451	     -0.65768680	    -22.15385584	     10.94139965	    -13.89452266	     -3.14746242	     18.83709029	     -2.16088022	      1.15470863	    -71.11251398	      0.01731707	    -11.17405608	     -0.88251512	      1.32626741	      5.73145181	      2.54038291
      0.90033333	     -0.00315277	     -2.15140394	      3.08890318	     -0.30227484	      0.98811941	      0.34762683	     10.97476119	      7.59775661	     -0.67088883	    -21.70546964	     11.00165493	    -13.54503543	     -3.18202545	     19.36370711	     -2.08283517	      1.09070942	    -70.81351139	      0.51166839	    -11.31693472	     -0.97272491	      1.18242467	      5.68171153	      2.73217561
      0.90450000	      0.06215850	     -2.08679672	      2.94439568	     -0.29730462	      0.98893262	      0.34791957	     10.35262541	      7.53732249	     -0.68768548	    -21.26931663	     11.06223933	    -13.18903092	     -3.20773328	     19.89740282	     -2.00629246	      1.02248100	    -70.47225050	      0.97963333	    -11.43659217	     -1.06989430	      1.05847312	      5.63272454	      2.92652669
      0.90866667	      0.14023458	     -2.01813549	      2.79715529	     -0.29234296	      0.98973428	      0.34820965	      9.71774387	      7.47055256	     -0.70819010	    -20.83375557	     11.12359993	    -12.82930387	     -3.22361789	     20.40070873	     -1.92698694	      0.95491697	    -70.08082693	      1.41462293	    -11.54061876	     -1.17420428	      0.91619575	      5.57953643	      3.12328377
      0.91283333	      0.22102656	     -1.94805167	      2.64358310	     -0.28737994	      0.99052058	      0.34849860	      9.07908150	      7.40006773	     -0.72231046	    -20.39335026	     11.17494868	    -12.46439615	     -3.22901195	     20.88343424	     -1.84904297	      0.88303881	    -69.63855649	      1.81804640	    -11.62321693	     -1.27841479	      0.77206989	      5.52539117	      3.31857888
      0.91700000	      0.28273792	     -1.88494828	      2.48335182	     -0.28243897	      0.99122133	      0.34879262	      8.47048711	      7.33421127	     -0.73636392	    -19.96650658	     11.22695065	    -12.09327057	     -3.22440234	     21.37781660	     -1.78185068	      0.80934080	    -69.16223742	      2.20078596	    -11.68140138	     -1.38206654	      0.64939317	      5.47998028	      3.51859161
      0.92116667	      0.34431757	     -1.80914361	      2.31900681	     -0.27750739	      0.99188706	      0.34908394	      7.86889755	      7.25101923	     -0.75451648	    -19.55359904	     11.28607968	    -11.70920892	     -3.20999616	     21.85405902	     -1.70046584	      0.73469685	    -68.63665927	      2.55304285	    -11.72002361	     -1.48986625	      0.52126479	      5.41610433	      3.72619554
      0.92533333	      0.40215605	     -1.73426337	      2.15134530	     -0.27258337	      0.99252059	      0.34937011	      7.27453263	      7.16559228	     -0.77424278	    -19.14250313	     11.34134525	    -11.31575217	     -3.18486566	     22.31859821	     -1.62177775	      0.65998002	    -68.06661442	      2.88126459	    -11.74234952	     -1.60608131	      0.39640141	      5.34994539	      3.93914875
      0.92950000	      0.46911006	     -1.67191167	      1.98185613	     -0.26766308	      0.99311324	      0.34966314	      6.67052803	      7.09381076	     -0.78918014	    -18.72836805	     11.39562399	    -10.93804306	     -3.15046830	     22.76072035	     -1.56305443	      0.58501818	    -67.46052467	      3.19603113	    -11.73057302	     -1.72365222	      0.26298060	      5.30029664	      4.14312179
      0.93366667	      0.50514486	     -1.60785950	      1.77870721	     -0.26276054	      0.99363313	      0.34999901	      6.10787660	      7.02447115	     -0.74410751	    -18.32705473	     11.42421834	    -10.61721872	     -3.12225449	     23.21480407	     -1.51546409	      0.47850040	    -66.80939038	      3.50578583	    -11.72237142	     -1.79533640	      0.16867227	      5.25175271	      4.30002050
      0.93783333	      0.57168554	     -1.55134115	      1.63089796	     -0.25784971	      0.99414538	      0.35025841	      5.50725871	      6.95004245	     -0.79873774	    -17.91171159	     11.49183796	    -10.20714193	     -3.06832802	     23.63062895	     -1.45410560	      0.43847538	    -66.12408515	      3.76903977	    -11.63964938	     -1.91711243	      0.03313636	      5.20267432	      4.56320748
      0.94200000	      0.59466196	     -1.50069762	      1.44473909	     -0.25296327	      0.99454593	      0.35057211	      4.96655296	      6.88674501	     -0.79180432	    -17.51838135	     11.54006127	     -9.84378487	     -3.00986165	     24.07634620	     -1.41655800	      0.36199026	    -65.40384530	      4.03658390	    -11.56018357	     -2.03097241	     -0.04983335	      5.16300895	      4.76891659
      0.94616667	      0.61849336	     -1.45320583	      1.24092236	     -0.24808329	      0.99491873	      0.35090808	      4.42315604	      6.83187902	     -0.72592702	    -17.12156761	     11.57316978	     -9.55090738	     -2.97034637	     24.49927343	     -1.39143245	      0.27079787	    -64.63745679	      4.29133490	    -11.48535995	     -2.09624045	     -0.13124348	      5.13272413	      4.91212761
      0.95033333	      0.66197367	     -1.40088836	      1.05635997	     -0.24319409	      0.99527941	      0.35122270	      3.85548559	      6.76509394	     -0.70577998	    -16.71547891	     11.61194407	     -9.21666229	     -2.92370370	     24.88405998	     -1.35650631	      0.19939540	    -63.83043264	      4.53050229	    -11.36712696	     -2.16599302	     -0.24277026	      5.08752331	      5.11550088
      0.95450000	      0.69424032	     -1.36616594	      0.87401410	     -0.23832053	      0.99556766	      0.35153603	      3.30533812	      6.71649136	     -0.68408790	    -16.31687360	     11.66230967	     -8.88994185	     -2.87278488	     25.27102013	     -1.34050790	      0.13740628	    -62.99537258	      4.75450134	    -11.24915331	     -2.23501573	     -0.33943804	      5.06371040	      5.31584715
      0.95866667	      0.72872906	     -1.32848330	      0.71467201	     -0.23342561	      0.99581626	      0.35181677	      2.75357946	      6.65653738	     -0.72551384	    -15.92062939	     11.73236591	     -8.52968740	     -2.79303440	     25.63955680	     -1.31477576	      0.09345283	    -62.12278663	      4.96166542	    -11.12454742	     -2.33893611	     -0.43217725	      5.01969762	      5.56407078
      0.96283333	      0.74514817	     -1.29494255	      0.53313777	     -0.22855675	      0.99600166	      0.35211541	      2.22745038	      6.60489466	     -0.69973530	    -15.53509382	     11.78487055	     -8.20198433	     -2.70670678	     26.00674704	     -1.29803145	      0.04177586	    -61.20994539	      5.16174627	    -10.99878692	     -2.44422309	     -0.51468431	      5.00290214	      5.75657927
      0.96700000	      0.75409724	     -1.26879709	      0.33027175	     -0.22369311	      0.99614450	      0.35245374	      1.70945558	      6.56491915	     -0.62000505	    -15.14816696	     11.82878096	     -7.94448633	     -2.65545034	     26.36209283	     -1.30805476	     -0.04147953	    -60.25911635	      5.33740363	    -10.88438066	     -2.49983203	     -0.58184813	      4.98620442	      5.88341694
      0.97116667	      0.77940072	     -1.25311121	      0.15800977	     -0.21881524	      0.99624656	      0.35276702	      1.16755976	      6.53191217	     -0.59494555	    -14.74677778	     11.87976284	     -7.65858389	     -2.59482607	     26.68900894	     -1.32184130	     -0.09709575	    -59.28310622	      5.52015274	    -10.74753010	     -2.56186242	     -0.66804159	      4.97285265	      6.07060521
      0.97533333	      0.79755542	     -1.23640776	     -0.01414620	     -0.21393310	      0.99631102	      0.35306085	      0.63726417	      6.49416587	     -0.57311541	    -14.35354105	     11.93950007	     -7.37897847	     -2.52899057	     27.00340012	     -1.33309217	     -0.15488457	    -58.26694600	      5.67664625	    -10.63742350	     -2.62672753	     -0.74455556	      4.95694432	      6.25084413
      0.97950000	      0.81971148	     -1.23741422	     -0.16187747	     -0.20904916	      0.99631969	      0.35331988	      0.10288678	      6.47160397	     -0.58676279	    -13.96052819	     12.00961380	     -7.08758548	     -2.43304091	     27.30247522	     -1.35308253	     -0.18189347	    -57.22722726	      5.83486733	    -10.52339797	     -2.71831213	     -0.82572088	      4.96475074	      6.45231225
      0.98366667	      0.80489560	     -1.22754667	     -0.35171054	     -0.20419389	      0.99624933	      0.35364372	     -0.37802950	      6.44278193	     -0.50498439	    -13.59462467	     12.07359172	     -6.85222130	     -2.37841567	     27.61572695	     -1.38452753	     -0.25739720	    -56.14206991	      5.95586613	    -10.43800064	     -2.76617859	     -0.86715556	      4.96038797	      6.55671457
      0.98783333	      0.81097961	     -1.23054798	     -0.49988086	     -0.19928371	      0.99614353	      0.35391215	     -0.89326788	      6.41946570	     -0.52463194	    -13.20740585	     12.14455281	     -6.57864281	     -2.29708197	     27.89637239	     -1.42046840	     -0.31368081	    -55.04043995	      6.08636368	    -10.35559925	     -2.83585458	     -0.92398947	      4.95980099	      6.73839390
